<svg width="23" height="23" viewBox="0 0 23 23" fill="none" xmlns="http://www.w3.org/2000/svg">
<path fill-rule="evenodd" clip-rule="evenodd" d="M11.293 22.5857C5.21784 22.5857 0.292969 17.6608 0.292969 11.5857C0.292969 5.51056 5.21784 0.585693 11.293 0.585693C17.3681 0.585693 22.293 5.51056 22.293 11.5857C22.293 17.6608 17.3681 22.5857 11.293 22.5857ZM11.293 20.5857C16.2635 20.5857 20.293 16.5563 20.293 11.5857C20.293 6.61513 16.2635 2.58569 11.293 2.58569C6.32241 2.58569 2.29297 6.61513 2.29297 11.5857C2.29297 16.5563 6.32241 20.5857 11.293 20.5857ZM6.58586 12.8786L8.00008 14.2928L11.293 10.9999L14.5859 14.2928L16.0001 12.8786L11.293 8.17148L6.58586 12.8786Z" fill="#411E76"/>
</svg>
