<svg width="28" height="28" viewBox="0 0 28 28" fill="none" xmlns="http://www.w3.org/2000/svg">
<path fill-rule="evenodd" clip-rule="evenodd" d="M14 27.75C6.40608 27.75 0.25 21.5939 0.25 14C0.25 6.40608 6.40608 0.25 14 0.25C21.5939 0.25 27.75 6.40608 27.75 14C27.75 21.5939 21.5939 27.75 14 27.75ZM14 25.25C20.2132 25.25 25.25 20.2132 25.25 14C25.25 7.7868 20.2132 2.75 14 2.75C7.7868 2.75 2.75 7.7868 2.75 14C2.75 20.2132 7.7868 25.25 14 25.25ZM9.8839 19.8839L14 15.7678L18.1161 19.8839L19.8839 18.1161L15.7678 14L19.8839 9.88389L18.1161 8.11612L14 12.2322L9.8839 8.11612L8.11614 9.88389L12.2323 14L8.11614 18.1161L9.8839 19.8839Z" fill="#411E76"/>
</svg>
